# xmcd
#
# Track frame offsets: 
#        150
#        19887
#        37637
#        53062
#        66700
#        85762
#        103325
#        117825
#        135787
#        154650
#
# Disc length: 2267 seconds
#
# Revision: 2
# Processed by: cddbd v1.5.2PL0 Copyright (c) Steve Scherf et al.
# Submitted via: ExactAudioCopy v1.3
#
DISCID=7908d90a
DTITLE=林志穎 - 牽掛你的我
DYEAR=1993
DGENRE=Pop
TTITLE0=牽掛你的我
TTITLE1=懵懂少年心
TTITLE2=小心黑夜
TTITLE3=勇敢接受我的愛
TTITLE4=全新的愛
TTITLE5=就是這一天
TTITLE6=我有一顆熾熱的心
TTITLE7=彩色的歌
TTITLE8=戲夢
TTITLE9=童話短路
EXTD=
EXTT0=
EXTT1=
EXTT2=
EXTT3=
EXTT4=
EXTT5=
EXTT6=
EXTT7=
EXTT8=
EXTT9=
PLAYORDER=
